<svg width="24.000000" height="24.000000" viewBox="0 0 24 24" fill="none" xmlns="http://www.w3.org/2000/svg" xmlns:xlink="http://www.w3.org/1999/xlink">
	<desc>
			Created with Pixso.
	</desc>
	<defs>
		<clipPath id="clip1522_492">
			<rect id="Attach" rx="-0.500000" width="23.000000" height="23.000000" transform="translate(0.500000 0.500000)" fill="white" fill-opacity="0"/>
		</clipPath>
	</defs>
	<g clip-path="url(#clip1522_492)">
		<path id="Vector (Stroke)" d="M18.42 3.93C16.62 2.12 13.69 2.12 11.89 3.93L5.54 10.27C5.15 10.66 4.52 10.66 4.13 10.27C3.74 9.88 3.74 9.25 4.13 8.86L10.47 2.52C13.06 -0.07 17.25 -0.07 19.84 2.52C22.43 5.1 22.43 9.3 19.84 11.89L11.31 20.41C9.45 22.27 6.45 22.27 4.59 20.41C2.74 18.56 2.74 15.55 4.59 13.7L4.59 13.69L4.59 13.69L11.04 7.32C11.04 7.32 11.04 7.32 11.04 7.32C12.14 6.23 13.92 6.14 15.07 7.29C16.19 8.41 16.19 10.23 15.07 11.35L10.56 15.86C10.17 16.25 9.54 16.25 9.15 15.86C8.75 15.47 8.75 14.84 9.15 14.45L13.65 9.94C14 9.6 14 9.04 13.65 8.7C13.33 8.39 12.82 8.37 12.45 8.74L12.45 8.74L12.45 8.74L6 15.11C6 15.11 6 15.11 6 15.11C4.93 16.19 4.93 17.93 6 19C7.08 20.08 8.82 20.08 9.9 19L18.42 10.47C20.23 8.66 20.23 5.74 18.42 3.93Z" fill="#FF5A30" fill-opacity="1.000000" fill-rule="evenodd"/>
	</g>
</svg>
