<svg width="25.943359" height="25.943359" viewBox="0 0 25.9434 25.9434" fill="none" xmlns="http://www.w3.org/2000/svg" xmlns:xlink="http://www.w3.org/1999/xlink">
	<desc>
			Created with Pixso.
	</desc>
	<defs/>
	<path id="Vector (Stroke)" d="M19.84 6.09C18.03 4.29 15.1 4.29 13.3 6.09L6.96 12.44C6.57 12.83 5.93 12.83 5.54 12.44C5.15 12.05 5.15 11.41 5.54 11.02L11.88 4.68C14.47 2.09 18.67 2.09 21.25 4.68C23.84 7.27 23.84 11.46 21.25 14.05L12.72 22.58C10.87 24.43 7.86 24.43 6 22.58C4.15 20.73 4.15 17.72 6 15.86L6.01 15.86L6.01 15.86L12.45 9.49C12.45 9.49 12.45 9.49 12.45 9.49C13.55 8.39 15.33 8.31 16.48 9.45C17.6 10.58 17.6 12.4 16.48 13.52L11.97 18.03C11.58 18.42 10.95 18.42 10.56 18.03C10.17 17.64 10.17 17 10.56 16.61L15.07 12.1C15.41 11.76 15.41 11.21 15.07 10.87C14.75 10.55 14.23 10.53 13.86 10.9L13.86 10.91L13.86 10.91L7.42 17.28C7.42 17.28 7.42 17.28 7.42 17.28C6.35 18.35 6.35 20.09 7.42 21.16C8.49 22.24 10.24 22.24 11.31 21.16L19.84 12.63C21.65 10.83 21.65 7.9 19.84 6.09Z" fill="#FF5A30" fill-opacity="1.000000" fill-rule="evenodd"/>
</svg>
