<svg width="40.000000" height="40.000000" viewBox="0 0 40 40" fill="none" xmlns="http://www.w3.org/2000/svg" xmlns:xlink="http://www.w3.org/1999/xlink">
	<desc>
			Created with Pixso.
	</desc>
	<defs/>
	<path id="Subtract" d="M36.53 17.61C36.3 19.25 35.73 20.81 34.9 22.25C34.96 22.61 35 22.97 35 23.33C35 24.58 34.63 25.78 33.96 26.87C33.62 27.42 33.54 28.06 33.5 28.48C33.46 28.96 33.48 29.49 33.51 30C33.55 30.57 33.62 31.17 33.7 31.73C33.05 31.54 32.34 31.35 31.67 31.2C31.11 31.07 30.54 30.96 30.02 30.91C29.57 30.87 28.91 30.83 28.33 31.02C27.05 31.43 25.64 31.66 24.16 31.66C22.4 31.66 20.78 31.35 19.36 30.8C19.02 30.82 18.67 30.83 18.33 30.83C16.32 30.83 14.39 30.56 12.58 30.08C15.21 33.12 19.54 35 24.16 35C25.97 35 27.7 34.72 29.29 34.21C29.3 34.21 29.3 34.21 29.31 34.21C29.35 34.21 29.46 34.21 29.68 34.23C30.01 34.26 30.44 34.34 30.94 34.45C31.92 34.67 33.03 35 33.9 35.28C35.73 35.86 37.51 34.26 37.18 32.4C37.04 31.6 36.89 30.62 36.84 29.77C36.81 29.35 36.8 29 36.83 28.74C36.83 28.63 36.84 28.57 36.85 28.53C37.79 26.98 38.33 25.21 38.33 23.33C38.33 21.21 37.67 19.27 36.53 17.61Z" fill="#FF5A30" fill-opacity="1.000000" fill-rule="evenodd"/>
	<path id="Ellipse 8 (Stroke)" d="M9.32 9.49C7.08 11.21 5.83 13.46 5.83 15.83C5.83 17.01 6.13 18.14 6.71 19.2C6.93 19.6 6.99 20.01 7.01 20.29C7.04 20.6 7.03 20.91 7 21.21C6.95 21.8 6.82 22.46 6.67 23.12C6.49 23.89 6.26 24.71 6.03 25.48C6.91 25.16 7.87 24.83 8.78 24.57C9.52 24.35 10.26 24.16 10.93 24.06C11.5 23.97 12.33 23.88 13.04 24.13C14.64 24.68 16.43 25 18.33 25C21.91 25 25.08 23.88 27.33 22.16C29.58 20.45 30.83 18.19 30.83 15.83C30.83 13.46 29.58 11.21 27.33 9.49C25.08 7.77 21.91 6.66 18.33 6.66C14.75 6.66 11.57 7.77 9.32 9.49ZM7.3 6.84C10.18 4.64 14.08 3.33 18.33 3.33C22.57 3.33 26.48 4.64 29.36 6.84C32.24 9.05 34.16 12.21 34.16 15.83C34.16 19.45 32.24 22.61 29.36 24.81C26.48 27.01 22.57 28.33 18.33 28.33C16.09 28.33 13.95 27.96 12.01 27.3C12.01 27.3 11.85 27.29 11.45 27.35C10.98 27.43 10.39 27.57 9.72 27.77C8.37 28.16 6.87 28.71 5.72 29.16C3.73 29.93 1.7 28.02 2.37 25.99C2.73 24.91 3.15 23.55 3.42 22.37C3.56 21.78 3.65 21.28 3.68 20.91C3.69 20.78 3.69 20.69 3.69 20.62C2.93 19.16 2.49 17.54 2.49 15.83C2.49 12.21 4.42 9.05 7.3 6.84ZM3.69 20.53C3.69 20.53 3.69 20.54 3.69 20.55C3.69 20.54 3.69 20.53 3.69 20.53Z" fill="#FF5A30" fill-opacity="1.000000" fill-rule="evenodd"/>
</svg>
