<svg width="20.000000" height="20.000000" viewBox="0 0 20 20" fill="none" xmlns="http://www.w3.org/2000/svg" xmlns:xlink="http://www.w3.org/1999/xlink">
	<desc>
			Created with Pixso.
	</desc>
	<defs>
		<clipPath id="clip1442_218">
			<rect id="check" rx="-0.500000" width="19.000000" height="19.000000" transform="translate(0.500000 0.500000)" fill="white" fill-opacity="0"/>
		</clipPath>
	</defs>
	<g clip-path="url(#clip1442_218)">
		<path id="Vector" d="M19.16 10C19.16 15.05 15.05 19.16 10 19.16C4.94 19.16 0.83 15.05 0.83 10C0.83 4.94 4.94 0.83 10 0.83C11.83 0.83 13.6 1.37 15.11 2.38C15.46 2.62 15.55 3.09 15.32 3.44C15.08 3.79 14.6 3.89 14.25 3.65C13 2.8 11.53 2.36 10 2.36C5.78 2.36 2.36 5.78 2.36 10C2.36 14.21 5.78 17.63 10 17.63C14.21 17.63 17.63 14.21 17.63 10C17.63 9.27 17.53 8.55 17.33 7.87C17.22 7.46 17.45 7.04 17.85 6.92C18.26 6.8 18.68 7.04 18.8 7.44C19.04 8.26 19.16 9.12 19.16 10ZM10 10.48L18.57 1.91C18.9 1.58 19.43 1.58 19.75 1.91C20.08 2.23 20.08 2.76 19.75 3.08L10.58 12.25C10.42 12.41 10.21 12.5 10 12.5C9.78 12.5 9.57 12.41 9.41 12.25L6.07 8.92C5.75 8.59 5.75 8.07 6.07 7.74C6.4 7.41 6.93 7.41 7.25 7.74L10 10.48Z" fill="#FF5A30" fill-opacity="1.000000" fill-rule="evenodd"/>
	</g>
</svg>
