<svg width="16.000000" height="16.000000" viewBox="0 0 16 16" fill="none" xmlns="http://www.w3.org/2000/svg" xmlns:xlink="http://www.w3.org/1999/xlink">
	<desc>
			Created with Pixso.
	</desc>
	<defs>
		<clipPath id="clip1539_1639">
			<rect id="check" rx="-0.500000" width="15.000000" height="15.000000" transform="translate(0.500000 0.500000)" fill="white" fill-opacity="0"/>
		</clipPath>
	</defs>
	<g clip-path="url(#clip1539_1639)">
		<path id="Vector" d="M15.33 8C15.33 12.04 12.04 15.33 8 15.33C3.95 15.33 0.66 12.04 0.66 8C0.66 3.95 3.95 0.66 8 0.66C9.46 0.66 10.88 1.09 12.08 1.91C12.36 2.09 12.44 2.47 12.25 2.75C12.06 3.03 11.68 3.11 11.4 2.92C10.4 2.24 9.22 1.88 8 1.88C4.62 1.88 1.88 4.62 1.88 8C1.88 11.36 4.62 14.11 8 14.11C11.36 14.11 14.11 11.36 14.11 8C14.11 7.41 14.02 6.84 13.86 6.29C13.77 5.97 13.96 5.63 14.28 5.53C14.6 5.44 14.94 5.63 15.04 5.95C15.23 6.61 15.33 7.3 15.33 8ZM8 8.38L14.86 1.52C15.12 1.26 15.54 1.26 15.8 1.52C16.06 1.78 16.06 2.21 15.8 2.47L8.47 9.8C8.33 9.93 8.16 10 8 10C7.82 10 7.65 9.93 7.52 9.8L4.86 7.13C4.6 6.87 4.6 6.45 4.86 6.19C5.12 5.93 5.54 5.93 5.8 6.19L8 8.38Z" fill="#FF5A30" fill-opacity="1.000000" fill-rule="evenodd"/>
	</g>
</svg>
