<svg width="24.000000" height="24.000000" viewBox="0 0 24 24" fill="none" xmlns="http://www.w3.org/2000/svg" xmlns:xlink="http://www.w3.org/1999/xlink">
	<desc>
			Created with Pixso.
	</desc>
	<defs/>
	<path id="Vector" d="M3.09 3C3.09 2.44 2.65 2 2.09 2C1.54 2 1.09 2.44 1.09 3L1.09 9C1.09 9.55 1.54 10 2.09 10L8.09 10C8.65 10 9.09 9.55 9.09 9C9.09 8.44 8.65 8 8.09 8L5.06 8C6.45 5.6 9.04 4 12 4C15.48 4 18.44 6.22 19.54 9.33C19.72 9.85 20.29 10.12 20.82 9.94C21.34 9.75 21.61 9.18 21.43 8.66C20.05 4.78 16.35 2 12 2C8.11 2 4.75 4.2 3.09 7.43L3.09 3ZM4.45 14.66C4.26 14.14 3.69 13.87 3.17 14.05C2.65 14.24 2.38 14.81 2.56 15.33C3.93 19.21 7.64 22 11.99 22C15.87 22 19.23 19.79 20.89 16.56L20.89 21C20.89 21.55 21.34 22 21.89 22C22.45 22 22.89 21.55 22.89 21L22.89 15C22.89 14.44 22.45 14 21.89 14L15.89 14C15.34 14 14.89 14.44 14.89 15C14.89 15.55 15.34 16 15.89 16L18.92 16C17.54 18.39 14.95 20 11.99 20C8.51 20 5.55 17.77 4.45 14.66Z" fill="#424551" fill-opacity="1.000000" fill-rule="evenodd"/>
</svg>
