<svg width="24.000000" height="24.000000" viewBox="0 0 24 24" fill="none" xmlns="http://www.w3.org/2000/svg" xmlns:xlink="http://www.w3.org/1999/xlink">
	<desc>
			Created with Pixso.
	</desc>
	<defs/>
	<path id="cross" d="M4.29 4.29C4.68 3.9 5.31 3.9 5.7 4.29L12 10.58L18.29 4.29C18.68 3.9 19.31 3.9 19.7 4.29C20.09 4.68 20.09 5.31 19.7 5.7L13.41 12L19.7 18.29C20.09 18.68 20.09 19.31 19.7 19.7C19.31 20.09 18.68 20.09 18.29 19.7L12 13.41L5.7 19.7C5.31 20.09 4.68 20.09 4.29 19.7C3.9 19.31 3.9 18.68 4.29 18.29L10.58 12L4.29 5.7C3.9 5.31 3.9 4.68 4.29 4.29Z" fill="#787A80" fill-opacity="1.000000" fill-rule="evenodd"/>
</svg>
