<svg width="48.000000" height="48.000000" viewBox="0 0 48 48" fill="none" xmlns="http://www.w3.org/2000/svg" xmlns:xlink="http://www.w3.org/1999/xlink">
	<desc>
			Created with Pixso.
	</desc>
	<defs>
		<clipPath id="clip2_842">
			<rect id="ic-brain" rx="-0.500000" width="47.000000" height="47.000000" transform="translate(0.500000 0.500000)" fill="white" fill-opacity="0"/>
		</clipPath>
	</defs>
	<g clip-path="url(#clip2_842)">
		<path id="Vector" d="M48 24C48 20.51 46.16 17.34 43.22 15.6C43.56 14.21 43.43 12.74 42.82 11.4C42.16 9.97 41.03 8.85 39.63 8.22C39.49 6.17 38.65 4.25 37.2 2.74C35.51 0.97 33.24 0 30.79 0C28.13 0 25.66 1.19 24 3.17C22.33 1.19 19.86 0 17.2 0C14.75 0 12.48 0.97 10.79 2.74C9.34 4.25 8.5 6.17 8.36 8.22C6.96 8.85 5.83 9.97 5.17 11.4C4.56 12.74 4.43 14.21 4.77 15.6C1.83 17.34 0 20.51 0 24C0 27.48 1.83 30.65 4.77 32.39C4.43 33.78 4.56 35.25 5.17 36.59C5.83 38.02 6.96 39.14 8.36 39.77C8.5 41.82 9.34 43.74 10.79 45.25C12.48 47.02 14.75 48 17.2 48C19.86 48 22.33 46.8 24 44.82C25.66 46.8 28.13 48 30.79 48C33.24 48 35.51 47.02 37.2 45.25C38.65 43.74 39.49 41.82 39.63 39.77C41.03 39.14 42.16 38.02 42.82 36.59C43.43 35.25 43.56 33.78 43.22 32.39C46.16 30.65 48 27.48 48 24ZM41.19 30.28L34.5 30.28L34.5 26.23L39.46 26.23C40.24 26.23 40.87 25.6 40.87 24.83C40.87 24.72 40.87 20.71 40.87 20.71C40.87 19.94 40.24 19.31 39.46 19.31C38.69 19.31 38.06 19.94 38.06 20.71L38.06 23.42L34.5 23.42L34.5 20.98C34.5 19.43 33.23 18.17 31.68 18.17L28.87 18.17C28.09 18.17 27.46 18.8 27.46 19.58C27.46 20.35 28.09 20.98 28.87 20.98L31.68 20.98L31.68 30.28L25.4 30.28L25.4 27.75C25.4 26.97 24.77 26.34 24 26.34C23.22 26.34 22.59 26.97 22.59 27.75L22.59 30.28C22.59 31.83 23.85 33.09 25.4 33.09L40.49 33.09C40.68 33.86 40.6 34.68 40.26 35.42C39.81 36.42 38.94 37.14 37.89 37.41C37.24 37.58 36.8 38.17 36.83 38.84C36.91 40.51 36.32 42.1 35.17 43.31C34.02 44.52 32.46 45.18 30.79 45.18C28.51 45.18 26.43 43.89 25.4 41.88L25.4 38.9L27.93 38.9C28.71 38.9 29.34 38.27 29.34 37.5C29.34 36.72 28.71 36.09 27.93 36.09L25.4 36.09C23.85 36.09 22.59 37.35 22.59 38.9L22.59 41.88C21.56 43.89 19.48 45.18 17.2 45.18C15.53 45.18 13.97 44.52 12.82 43.31C11.99 42.44 11.46 41.37 11.25 40.22L14.62 40.22C16.17 40.22 17.43 38.96 17.43 37.41L17.43 35.67L18.65 35.67C19.43 35.67 20.06 35.04 20.06 34.26C20.06 33.49 19.43 32.86 18.65 32.86L17.43 32.86L17.43 31.12C17.43 29.57 16.17 28.31 14.62 28.31L12.18 28.31C11.41 28.31 10.78 28.94 10.78 29.71C10.78 30.49 11.41 31.12 12.18 31.12L14.62 31.12L14.62 37.41C14.62 37.41 10.11 37.41 10.1 37.41C9.05 37.14 8.18 36.42 7.73 35.42C7.27 34.42 7.29 33.29 7.78 32.32C7.95 31.97 7.97 31.57 7.84 31.2C7.7 30.84 7.42 30.55 7.06 30.4C4.48 29.31 2.81 26.8 2.81 24C2.81 21.19 4.48 18.68 7.06 17.59C7.1 17.58 7.15 17.56 7.18 17.54L9.37 17.54L9.37 21.75C9.37 22.53 10 23.16 10.78 23.16C11.55 23.16 12.18 22.53 12.18 21.75L12.18 17.54L17.43 17.54L17.43 24.38C17.43 25.16 18.06 25.79 18.84 25.79C19.62 25.79 20.25 25.16 20.25 24.38L20.25 21.85L21.62 21.85C22.39 21.85 23.02 21.22 23.02 20.44C23.02 19.67 22.39 19.04 21.62 19.04L20.25 19.04L20.25 17.54C20.25 15.99 18.98 14.72 17.43 14.72L16.59 14.72L16.59 10.96C16.59 10.19 15.96 9.56 15.18 9.56C14.41 9.56 13.78 10.19 13.78 10.96L13.78 14.72L7.46 14.72C7.33 14 7.41 13.25 7.73 12.57C8.18 11.57 9.05 10.85 10.1 10.58C10.75 10.41 11.19 9.82 11.16 9.15C11.08 7.48 11.67 5.89 12.82 4.68C13.97 3.47 15.53 2.81 17.2 2.81C19.55 2.81 21.69 4.18 22.68 6.31L22.68 11.06C22.68 12.61 23.94 13.87 25.5 13.87L33 13.87C33.77 13.87 34.4 13.24 34.4 12.46C34.4 11.69 33.77 11.06 33 11.06L32.71 11.06L32.71 9.09C32.71 8.31 32.08 7.68 31.31 7.68C30.53 7.68 29.9 8.31 29.9 9.09L29.9 11.06L25.5 11.06C25.5 11.06 25.49 6 25.49 5.95C26.54 4.03 28.58 2.81 30.79 2.81C32.46 2.81 34.02 3.47 35.17 4.68C36.32 5.89 36.91 7.48 36.83 9.15C36.8 9.82 37.24 10.41 37.89 10.58C38.94 10.85 39.81 11.57 40.26 12.57C40.72 13.57 40.7 14.7 40.21 15.67C40.04 16.02 40.02 16.42 40.15 16.79C40.29 17.15 40.57 17.44 40.93 17.59C43.51 18.68 45.18 21.19 45.18 24C45.18 26.7 43.63 29.13 41.19 30.28Z" fill="#FF5A30" fill-opacity="1.000000" fill-rule="nonzero"/>
	</g>
</svg>
