<svg width="48.000000" height="48.000000" viewBox="0 0 48 48" fill="none" xmlns="http://www.w3.org/2000/svg" xmlns:xlink="http://www.w3.org/1999/xlink">
	<desc>
			Created with Pixso.
	</desc>
	<defs>
		<clipPath id="clip2_851">
			<rect id="ic-budget" rx="-0.500000" width="47.000000" height="47.000000" transform="translate(0.500000 0.500000)" fill="white" fill-opacity="0"/>
		</clipPath>
	</defs>
	<g clip-path="url(#clip2_851)">
		<path id="Vector" d="M29.55 11.34C31.21 9.83 32.25 7.66 32.25 5.25L32.25 1.5C32.25 1.01 32.01 0.56 31.62 0.28C31.23 0 30.73 -0.08 30.27 0.07L27.52 0.99C25.25 1.75 22.74 1.75 20.47 0.99L17.72 0.07C17.26 -0.08 16.76 0 16.37 0.28C15.98 0.56 15.75 1.01 15.75 1.5L15.75 5.25C15.75 7.66 16.78 9.83 18.44 11.34C10.8 13.71 5.25 20.84 5.25 29.25L5.25 41.81C5.25 45.22 8.02 48 11.43 48L36.56 48C39.97 48 42.75 45.22 42.75 41.81L42.75 29.25C42.75 20.84 37.19 13.71 29.55 11.34ZM18.75 5.25L18.75 3.58L19.52 3.83C22.41 4.8 25.58 4.8 28.47 3.83L29.25 3.58L29.25 5.25C29.25 8.14 26.89 10.5 24 10.5C21.1 10.5 18.75 8.14 18.75 5.25ZM39.75 41.81C39.75 43.57 38.32 45 36.56 45L11.43 45C9.67 45 8.25 43.57 8.25 41.81L8.25 29.25C8.25 20.56 15.31 13.5 24 13.5C32.68 13.5 39.75 20.56 39.75 29.25L39.75 41.81Z" fill="#FF5A30" fill-opacity="1.000000" fill-rule="nonzero"/>
		<path id="Vector" d="M24 27.75C22.34 27.75 21 26.4 21 24.75C21 23.09 22.34 21.75 24 21.75C25.65 21.75 27 23.09 27 24.75C27 25.57 27.67 26.25 28.5 26.25C29.32 26.25 30 25.57 30 24.75C30 21.95 28.08 19.6 25.5 18.93L25.5 18C25.5 17.17 24.82 16.5 24 16.5C23.17 16.5 22.5 17.17 22.5 18L22.5 18.93C19.91 19.6 18 21.95 18 24.75C18 28.05 20.69 30.75 24 30.75C25.65 30.75 27 32.09 27 33.75C27 35.4 25.65 36.75 24 36.75C22.34 36.75 21 35.4 21 33.75C21 32.92 20.32 32.25 19.5 32.25C18.67 32.25 18 32.92 18 33.75C18 36.54 19.91 38.89 22.5 39.56L22.5 40.5C22.5 41.32 23.17 42 24 42C24.82 42 25.5 41.32 25.5 40.5L25.5 39.56C28.08 38.89 30 36.54 30 33.75C30 30.44 27.3 27.75 24 27.75Z" fill="#FF5A30" fill-opacity="1.000000" fill-rule="nonzero"/>
	</g>
</svg>
