<svg width="48.000000" height="48.000000" viewBox="0 0 48 48" fill="none" xmlns="http://www.w3.org/2000/svg" xmlns:xlink="http://www.w3.org/1999/xlink">
	<desc>
			Created with Pixso.
	</desc>
	<defs>
		<clipPath id="clip2_1280">
			<rect id="ic-camera" rx="-0.500000" width="47.000000" height="47.000000" transform="translate(0.500000 0.500000)" fill="white" fill-opacity="0"/>
		</clipPath>
	</defs>
	<g clip-path="url(#clip2_1280)">
		<path id="Vector" d="M33.46 33.41L33.46 23.68L39.07 21.36C43.58 19.49 45.72 14.31 43.86 9.8C41.99 5.29 36.8 3.14 32.29 5L1.67 17.69L4.2 21.48L0 23.22L3.35 31.32L9.18 28.91L11.71 32.69L25.02 27.18L25.02 33.41C23.92 34.5 23.24 36 23.24 37.66C23.24 40.97 25.93 43.66 29.24 43.66C30.9 43.66 32.4 42.98 33.49 41.89L48 41.89L48 33.44L33.49 33.44C33.48 33.43 33.47 33.42 33.46 33.41ZM4.87 27.65L3.67 24.74L5.8 23.86L7.58 26.52L4.87 27.65ZM12.77 29.21L5.91 18.98L33.37 7.6C36.44 6.33 39.98 7.8 41.26 10.87C42.53 13.95 41.07 17.49 37.99 18.76L12.77 29.21ZM27.83 26.02L30.64 24.85L30.64 31.84C30.19 31.73 29.72 31.67 29.24 31.67C28.75 31.67 28.28 31.73 27.83 31.84L27.83 26.02ZM29.24 40.85C27.48 40.85 26.05 39.42 26.05 37.66C26.05 35.91 27.48 34.48 29.24 34.48C30.99 34.48 32.42 35.91 32.42 37.66C32.42 39.42 30.99 40.85 29.24 40.85ZM35.06 36.26L45.18 36.26L45.18 39.07L35.06 39.07C35.17 38.62 35.23 38.15 35.23 37.66C35.23 37.18 35.17 36.71 35.06 36.26Z" fill="#FF5A30" fill-opacity="1.000000" fill-rule="nonzero"/>
	</g>
</svg>
