<svg width="48.000000" height="48.000000" viewBox="0 0 48 48" fill="none" xmlns="http://www.w3.org/2000/svg" xmlns:xlink="http://www.w3.org/1999/xlink">
	<desc>
			Created with Pixso.
	</desc>
	<defs>
		<clipPath id="clip2_1271">
			<rect id="ic-contract" rx="-0.500000" width="47.000000" height="47.000000" transform="translate(0.500000 0.500000)" fill="white" fill-opacity="0"/>
		</clipPath>
	</defs>
	<g clip-path="url(#clip2_1271)">
		<path id="Vector" d="M16.62 9.24L8.22 9.24C7.45 9.24 6.82 9.87 6.82 10.65C6.82 11.43 7.45 12.06 8.22 12.06L16.62 12.06C17.39 12.06 18.02 11.43 18.02 10.65C18.02 9.87 17.39 9.24 16.62 9.24Z" fill="#FF5A30" fill-opacity="1.000000" fill-rule="nonzero"/>
		<path id="Vector" d="M16.62 14.87L8.22 14.87C7.45 14.87 6.82 15.5 6.82 16.27C6.82 17.05 7.45 17.68 8.22 17.68L16.62 17.68C17.39 17.68 18.02 17.05 18.02 16.27C18.02 15.5 17.39 14.87 16.62 14.87Z" fill="#FF5A30" fill-opacity="1.000000" fill-rule="nonzero"/>
		<path id="Vector" d="M16.62 20.49L8.22 20.49C7.45 20.49 6.82 21.12 6.82 21.9C6.82 22.68 7.45 23.31 8.22 23.31L16.62 23.31C17.39 23.31 18.02 22.68 18.02 21.9C18.02 21.12 17.39 20.49 16.62 20.49Z" fill="#FF5A30" fill-opacity="1.000000" fill-rule="nonzero"/>
		<path id="Vector" d="M16.62 26.12L8.22 26.12C7.45 26.12 6.82 26.75 6.82 27.52C6.82 28.3 7.45 28.93 8.22 28.93L16.62 28.93C17.39 28.93 18.02 28.3 18.02 27.52C18.02 26.75 17.39 26.12 16.62 26.12Z" fill="#FF5A30" fill-opacity="1.000000" fill-rule="nonzero"/>
		<path id="Vector" d="M16.62 31.84L8.22 31.84C7.45 31.84 6.82 32.47 6.82 33.25C6.82 34.02 7.45 34.65 8.22 34.65L16.62 34.65C17.39 34.65 18.02 34.02 18.02 33.25C18.02 32.47 17.39 31.84 16.62 31.84Z" fill="#FF5A30" fill-opacity="1.000000" fill-rule="nonzero"/>
		<path id="Vector" d="M21.34 12.06L29.73 12.06C30.51 12.06 31.14 11.43 31.14 10.65C31.14 9.87 30.51 9.24 29.73 9.24L21.34 9.24C20.56 9.24 19.93 9.87 19.93 10.65C19.93 11.43 20.56 12.06 21.34 12.06Z" fill="#FF5A30" fill-opacity="1.000000" fill-rule="nonzero"/>
		<path id="Vector" d="M21.34 17.68L29.73 17.68C30.51 17.68 31.14 17.05 31.14 16.27C31.14 15.5 30.51 14.87 29.73 14.87L21.34 14.87C20.56 14.87 19.93 15.5 19.93 16.27C19.93 17.05 20.56 17.68 21.34 17.68Z" fill="#FF5A30" fill-opacity="1.000000" fill-rule="nonzero"/>
		<path id="Vector" d="M26.79 21.9C26.79 21.12 26.16 20.49 25.38 20.49L21.34 20.49C20.56 20.49 19.93 21.12 19.93 21.9C19.93 22.68 20.56 23.31 21.34 23.31L25.38 23.31C26.16 23.31 26.79 22.68 26.79 21.9Z" fill="#FF5A30" fill-opacity="1.000000" fill-rule="nonzero"/>
		<path id="Vector" d="M40.11 32.43C39.5 31.95 38.62 32.04 38.13 32.65L34.51 37.16L32.27 35.54C31.64 35.08 30.76 35.22 30.3 35.85C29.85 36.48 29.99 37.36 30.62 37.82L33.94 40.23C34.19 40.41 34.48 40.5 34.77 40.5C35.18 40.5 35.59 40.31 35.87 39.97L40.33 34.41C40.81 33.8 40.71 32.92 40.11 32.43Z" fill="#FF5A30" fill-opacity="1.000000" fill-rule="nonzero"/>
		<path id="Vector" d="M43.66 28.11C41.83 26.25 39.48 25.08 36.93 24.73L36.93 5.66C36.93 2.54 34.39 0 31.26 0L6.69 0C3.57 0 1.03 2.54 1.03 5.66L1.03 38.23C1.03 41.36 3.57 43.9 6.69 43.9L26.45 43.9C28.68 46.51 31.88 48 35.33 48C41.78 48 47.01 42.75 47.01 36.31C47.01 33.22 45.82 30.31 43.66 28.11ZM3.84 38.23L3.84 5.66C3.84 4.09 5.12 2.81 6.69 2.81L31.26 2.81C32.83 2.81 34.11 4.09 34.11 5.66L34.11 24.68C28.25 25.3 23.66 30.28 23.66 36.31C23.66 37.98 24 39.6 24.67 41.08L6.69 41.08C5.12 41.08 3.84 39.81 3.84 38.23ZM35.33 45.18C32.53 45.18 29.95 43.89 28.25 41.65C27.08 40.1 26.47 38.25 26.47 36.31C26.47 31.41 30.45 27.43 35.33 27.43C35.38 27.43 35.43 27.43 35.47 27.43L35.5 27.44C37.83 27.48 40.02 28.42 41.66 30.08C43.3 31.75 44.2 33.97 44.2 36.31C44.2 41.2 40.22 45.18 35.33 45.18Z" fill="#FF5A30" fill-opacity="1.000000" fill-rule="nonzero"/>
	</g>
</svg>
