<svg width="48.000000" height="48.000000" viewBox="0 0 48 48" fill="none" xmlns="http://www.w3.org/2000/svg" xmlns:xlink="http://www.w3.org/1999/xlink">
	<desc>
			Created with Pixso.
	</desc>
	<defs>
		<clipPath id="clip2_1202">
			<rect id="ic-house" rx="-0.500000" width="47.000000" height="47.000000" transform="translate(0.500000 0.500000)" fill="white" fill-opacity="0"/>
		</clipPath>
	</defs>
	<g clip-path="url(#clip2_1202)">
		<path id="Vector" d="M28.92 21.09C26.96 21.09 25.26 21.98 24 23.67C22.73 21.98 21.03 21.09 19.07 21.09C15.42 21.09 12.75 24.09 12.75 27.78C12.75 32.55 17.36 35.54 23.08 40.44C23.34 40.66 23.67 40.78 24 40.78C24.32 40.78 24.65 40.66 24.91 40.44C30.63 35.53 35.25 32.54 35.25 27.78C35.25 24.1 32.58 21.09 28.92 21.09ZM24 37.52C18.84 33.17 15.56 30.83 15.56 27.78C15.56 25.57 17.07 23.9 19.07 23.9C21.68 23.9 22.6 26.96 22.64 27.1C22.81 27.7 23.37 28.12 24 28.12C24.63 28.12 25.18 27.7 25.35 27.09C25.36 27.06 26.27 23.9 28.92 23.9C30.92 23.9 32.43 25.57 32.43 27.78C32.43 30.83 29.14 33.18 24 37.52Z" fill="#FFFFFF" fill-opacity="1.000000" fill-rule="nonzero"/>
		<path id="Vector" d="M46.59 45.18L42.37 45.18L42.37 23.34C42.38 23.34 42.39 23.35 42.39 23.36C43.02 23.8 43.88 23.67 44.34 23.06L47.71 18.56C47.94 18.26 48.04 17.88 47.98 17.5C47.92 17.13 47.72 16.8 47.41 16.58C47.19 16.41 24.94 0.35 24.83 0.27C24.33 -0.09 23.66 -0.09 23.17 0.26C23.1 0.31 18.85 3.38 14.06 6.84L14.06 4.21C14.06 3.44 13.43 2.81 12.65 2.81L7.03 2.81C6.25 2.81 5.62 3.44 5.62 4.21L5.62 12.93C2.74 15.02 0.65 16.53 0.58 16.58C0.27 16.8 0.07 17.13 0.01 17.5C-0.05 17.88 0.05 18.26 0.28 18.56L3.65 23.06C4.11 23.67 4.97 23.8 5.6 23.36C5.6 23.35 5.61 23.34 5.62 23.34L5.62 45.18L1.4 45.18C0.62 45.18 0 45.81 0 46.59C0 47.37 0.62 48 1.4 48L46.59 48C47.37 48 48 47.37 48 46.59C48 45.81 47.37 45.18 46.59 45.18ZM8.43 5.62L11.25 5.62L11.25 8.87C10.29 9.56 9.35 10.25 8.43 10.9L8.43 5.62ZM5.08 20.27L3.39 18.02C17.57 7.78 22.37 4.31 24 3.14C26.26 4.77 33.17 9.76 44.6 18.02L42.91 20.27C42.77 20.17 24.97 7.41 24.82 7.29C24.33 6.94 23.66 6.94 23.17 7.29C22.85 7.52 5.48 19.98 5.08 20.27ZM8.43 21.32C18.76 13.92 22.58 11.18 24 10.16C25.91 11.53 31.12 15.27 39.56 21.32L39.56 45.18L8.43 45.18L8.43 21.32Z" fill="#FFFFFF" fill-opacity="1.000000" fill-rule="nonzero"/>
	</g>
</svg>
