<svg width="48.000000" height="48.000000" viewBox="0 0 48 48" fill="none" xmlns="http://www.w3.org/2000/svg" xmlns:xlink="http://www.w3.org/1999/xlink">
	<desc>
			Created with Pixso.
	</desc>
	<defs>
		<clipPath id="clip2_824">
			<rect id="ic-hand" rx="-0.500000" width="47.000000" height="47.000000" transform="translate(0.500000 0.500000)" fill="white" fill-opacity="0"/>
		</clipPath>
	</defs>
	<g clip-path="url(#clip2_824)">
		<path id="Vector" d="M7 44L1.5 44C0.67 44 0 43.32 0 42.5L0 25.5C0 24.67 0.67 24 1.5 24C8.51 24 11.77 26.43 11.91 26.53C12.39 26.9 12.6 27.53 12.44 28.12L8.44 42.89C8.27 43.54 7.67 44 7 44ZM3 41L5.85 41L9.24 28.45C8.2 27.96 6.15 27.22 3 27.04L3 41Z" fill="#FF5A30" fill-opacity="1.000000" fill-rule="nonzero"/>
		<path id="Vector" d="M26 48C21.48 48 13.15 44.54 6.96 41.63C6.21 41.28 5.89 40.39 6.24 39.64C6.59 38.89 7.48 38.56 8.23 38.91C16.47 42.78 22.95 45 26 45C30.05 45 39.26 40.61 44.08 38.08C43.53 37.77 42.7 37.5 41.5 37.5C39.74 37.5 37.57 38.22 35.47 38.91C34.79 39.14 34.11 39.36 33.43 39.57C31.95 40.03 30.2 40.5 28.49 40.5C24.28 40.5 18.71 38.49 18.48 38.41C17.7 38.12 17.3 37.26 17.58 36.48C17.87 35.7 18.73 35.31 19.5 35.58C19.56 35.6 24.81 37.5 28.49 37.5C29.81 37.5 31.35 37.07 32.55 36.7C33.2 36.5 33.86 36.28 34.52 36.07C36.84 35.29 39.25 34.5 41.49 34.5C46.45 34.5 47.83 37.8 47.88 37.94C48.16 38.64 47.88 39.44 47.22 39.81C46.62 40.14 32.31 48 26 48Z" fill="#FF5A30" fill-opacity="1.000000" fill-rule="nonzero"/>
		<path id="Vector" d="M33 39.67C32.17 39.67 31.5 39 31.5 38.17L31.5 37.27C31.5 36.09 30.65 35.06 29.5 34.83L10.23 30.88C9.42 30.72 8.9 29.93 9.06 29.11C9.23 28.3 10.02 27.78 10.83 27.95L30.1 31.89C32.64 32.41 34.5 34.67 34.5 37.28L34.5 38.18C34.5 39 33.82 39.67 33 39.67Z" fill="#FF5A30" fill-opacity="1.000000" fill-rule="nonzero"/>
		<path id="Vector" d="M36 28C35.79 28 35.6 27.96 35.41 27.88C34.94 27.68 24 22.91 24 13.1L24 5.07C24 4.43 24.4 3.86 25.01 3.65L35.51 0.08C35.83 -0.03 36.16 -0.03 36.48 0.08L46.98 3.65C47.59 3.85 48 4.42 48 5.07L48 13.1C48 22.91 37.05 27.68 36.58 27.88C36.39 27.96 36.2 28 36 28ZM27 6.14L27 13.1C27 19.8 33.91 23.79 35.99 24.84C38.08 23.78 45 19.77 45 13.1L45 6.14L36 3.08L27 6.14Z" fill="#FF5A30" fill-opacity="1.000000" fill-rule="nonzero"/>
		<path id="Vector" d="M35.49 19C35.1 19 34.71 18.84 34.43 18.56L30.43 14.56C29.85 13.97 29.85 13.02 30.43 12.43C31.02 11.85 31.97 11.85 32.56 12.43L35.33 15.21L40.29 8.59C40.79 7.93 41.73 7.8 42.39 8.3C43.06 8.79 43.19 9.73 42.69 10.4L36.69 18.4C36.43 18.74 36.03 18.96 35.6 18.99C35.56 19 35.53 19 35.49 19Z" fill="#FF5A30" fill-opacity="1.000000" fill-rule="nonzero"/>
	</g>
</svg>
