<svg width="48.000000" height="48.000000" viewBox="0 0 48 48" fill="none" xmlns="http://www.w3.org/2000/svg" xmlns:xlink="http://www.w3.org/1999/xlink">
	<desc>
			Created with Pixso.
	</desc>
	<defs>
		<clipPath id="clip2_1274">
			<rect id="ic-helmet" rx="-0.500000" width="47.000000" height="47.000000" transform="translate(0.500000 0.500000)" fill="white" fill-opacity="0"/>
		</clipPath>
	</defs>
	<g clip-path="url(#clip2_1274)">
		<path id="Vector" d="M45.18 34.08L45.18 29.62C45.18 24.99 43.69 20.59 40.87 16.89C38.36 13.61 34.89 11.1 31.02 9.73C30.91 7.5 29.06 5.71 26.81 5.71L21.18 5.71C18.93 5.71 17.08 7.5 16.97 9.73C13.1 11.1 9.63 13.61 7.12 16.89C4.3 20.59 2.81 24.99 2.81 29.62L2.81 34.08C1.17 34.66 0 36.22 0 38.06C0 40.38 1.89 42.28 4.21 42.28L43.78 42.28C46.1 42.28 48 40.38 48 38.06C48 36.22 46.82 34.66 45.18 34.08ZM5.62 29.62C5.62 24.55 7.79 19.8 11.34 16.41L11.34 21.18C11.34 21.96 11.97 22.59 12.75 22.59C13.52 22.59 14.15 21.96 14.15 21.18L14.15 14.21C15.04 13.64 15.98 13.15 16.96 12.74L16.96 24C16.96 24.77 17.59 25.4 18.37 25.4C19.15 25.4 19.78 24.77 19.78 24L19.78 10.77C19.78 10.77 19.78 10.76 19.78 10.76L19.78 9.93C19.78 9.16 20.41 8.53 21.18 8.53L26.81 8.53C27.58 8.53 28.21 9.16 28.21 9.93L28.21 10.76C28.21 10.76 28.21 10.77 28.21 10.77L28.21 24C28.21 24.77 28.84 25.4 29.62 25.4C30.4 25.4 31.03 24.77 31.03 24L31.03 12.74C32.01 13.15 32.95 13.64 33.84 14.21L33.84 21.18C33.84 21.96 34.47 22.59 35.25 22.59C36.02 22.59 36.65 21.96 36.65 21.18L36.65 16.41C40.2 19.8 42.37 24.55 42.37 29.62L42.37 33.84L5.62 33.84L5.62 29.62ZM43.78 39.46L4.21 39.46C3.44 39.46 2.81 38.83 2.81 38.06C2.81 37.28 3.44 36.65 4.21 36.65L43.78 36.65C44.55 36.65 45.18 37.28 45.18 38.06C45.18 38.83 44.55 39.46 43.78 39.46Z" fill="#FF5A30" fill-opacity="1.000000" fill-rule="nonzero"/>
	</g>
</svg>
