<svg width="48.000000" height="48.000000" viewBox="0 0 48 48" fill="none" xmlns="http://www.w3.org/2000/svg" xmlns:xlink="http://www.w3.org/1999/xlink">
	<desc>
			Created with Pixso.
	</desc>
	<defs>
		<clipPath id="clip1499_1677">
			<rect id="ic-like" rx="-0.500000" width="47.000000" height="47.000000" transform="translate(0.500000 0.500000)" fill="white" fill-opacity="0"/>
		</clipPath>
	</defs>
	<g clip-path="url(#clip1499_1677)">
		<path id="Vector" d="M44.01 29.71C44.68 28.97 45.09 27.98 45.09 26.9C45.09 24.58 43.2 22.68 40.87 22.68L32.68 22.68C33.49 20.22 33.84 16.96 33.84 15.56L33.84 14.15C33.84 11.05 31.32 8.53 28.21 8.53L26.81 8.53C26.16 8.53 25.6 8.97 25.44 9.59L24.68 12.66C23.6 16.95 20.2 21.68 16.67 22.54C16.05 20.98 14.53 19.87 12.75 19.87L4.31 19.87C3.53 19.87 2.9 20.5 2.9 21.28L2.9 46.59C2.9 47.36 3.53 48 4.31 48L12.75 48C14.42 48 15.87 47.01 16.55 45.59L21.39 47.2C22.96 47.73 24.61 48 26.28 48L38.06 48C40.38 48 42.28 46.1 42.28 43.78C42.28 43.23 42.17 42.7 41.98 42.22C43.77 41.73 45.09 40.09 45.09 38.15C45.09 37.07 44.68 36.09 44.01 35.34C44.68 34.59 45.09 33.6 45.09 32.53C45.09 31.45 44.68 30.46 44.01 29.71ZM14.15 43.78C14.15 44.55 13.52 45.18 12.75 45.18L5.71 45.18L5.71 22.68L12.75 22.68C13.52 22.68 14.15 23.31 14.15 24.09L14.15 43.78ZM38.06 31.12L40.87 31.12C41.65 31.12 42.28 31.75 42.28 32.53C42.28 33.3 41.65 33.93 40.87 33.93L38.06 33.93C37.28 33.93 36.65 34.56 36.65 35.34C36.65 36.11 37.28 36.75 38.06 36.75L40.87 36.75C41.65 36.75 42.28 37.38 42.28 38.15C42.28 38.93 41.65 39.56 40.87 39.56L38.06 39.56C37.28 39.56 36.65 40.19 36.65 40.96C36.65 41.74 37.28 42.37 38.06 42.37C38.83 42.37 39.46 43 39.46 43.78C39.46 44.55 38.83 45.18 38.06 45.18L26.28 45.18C24.91 45.18 23.57 44.96 22.27 44.53L16.96 42.76L16.96 25.36C19.17 24.94 21.33 23.55 23.28 21.26C25.18 19.03 26.72 16.07 27.41 13.34L27.91 11.34L28.21 11.34C29.76 11.34 31.03 12.6 31.03 14.15L31.03 15.56C31.03 17.44 30.44 21.07 29.68 22.68L26.81 22.68C26.03 22.68 25.4 23.31 25.4 24.09C25.4 24.86 26.03 25.5 26.81 25.5L40.87 25.5C41.65 25.5 42.28 26.13 42.28 26.9C42.28 27.68 41.65 28.31 40.87 28.31L38.06 28.31C37.28 28.31 36.65 28.94 36.65 29.71C36.65 30.49 37.28 31.12 38.06 31.12Z" fill="#9A9CA5" fill-opacity="1.000000" fill-rule="nonzero"/>
		<path id="Vector" d="M11.34 40.96C11.34 41.74 10.71 42.37 9.93 42.37C9.16 42.37 8.53 41.74 8.53 40.96C8.53 40.19 9.16 39.56 9.93 39.56C10.71 39.56 11.34 40.19 11.34 40.96Z" fill="#9A9CA5" fill-opacity="1.000000" fill-rule="evenodd"/>
		<path id="Vector" d="M29.62 0C28.84 0 28.21 0.62 28.21 1.4L28.21 4.31C28.21 5.08 28.84 5.71 29.62 5.71C30.4 5.71 31.03 5.08 31.03 4.31L31.03 1.4C31.03 0.62 30.4 0 29.62 0Z" fill="#9A9CA5" fill-opacity="1.000000" fill-rule="nonzero"/>
		<path id="Vector" d="M23.65 6.2L21.66 4.21C21.12 3.66 20.23 3.66 19.68 4.21C19.13 4.76 19.13 5.65 19.68 6.2L21.66 8.18C22.21 8.73 23.1 8.74 23.65 8.18C24.2 7.64 24.2 6.75 23.65 6.2Z" fill="#9A9CA5" fill-opacity="1.000000" fill-rule="nonzero"/>
		<path id="Vector" d="M39.56 4.21C39.01 3.66 38.12 3.66 37.58 4.21L35.59 6.2C35.04 6.75 35.04 7.64 35.59 8.18C36.14 8.73 37.03 8.74 37.58 8.18L39.56 6.2C40.11 5.65 40.11 4.76 39.56 4.21Z" fill="#9A9CA5" fill-opacity="1.000000" fill-rule="nonzero"/>
	</g>
</svg>
