<svg width="52.000000" height="52.000000" viewBox="0 0 52 52" fill="none" xmlns="http://www.w3.org/2000/svg" xmlns:xlink="http://www.w3.org/1999/xlink">
	<desc>
			Created with Pixso.
	</desc>
	<defs>
		<clipPath id="clip2_693">
			<rect id="ic-plan" rx="-0.500000" width="51.000000" height="51.000000" transform="translate(0.500000 0.500000)" fill="white" fill-opacity="0"/>
		</clipPath>
	</defs>
	<g clip-path="url(#clip2_693)">
		<path id="Vector" d="M45.9 3.14C43.65 3.14 41.68 4.37 40.62 6.19L1.52 6.19C0.68 6.19 0 6.87 0 7.71L0 47.32C0 48.16 0.68 48.85 1.52 48.85L45.9 48.85C49.26 48.85 52 46.11 52 42.75L52 9.24C52 5.88 49.26 3.14 45.9 3.14ZM45.9 45.8C45.31 45.8 3.6 45.8 3.04 45.8L3.04 9.24L39.81 9.24L39.81 42.75C39.81 43.59 40.49 44.28 41.33 44.28C42.17 44.28 42.85 43.59 42.85 42.75C42.85 41.07 44.22 39.71 45.9 39.71C47.58 39.71 48.95 41.07 48.95 42.75C48.95 44.43 47.58 45.8 45.9 45.8ZM48.95 37.48C48.05 36.96 47.01 36.66 45.9 36.66C44.79 36.66 43.75 36.96 42.85 37.48L42.85 9.24C42.85 7.56 44.22 6.19 45.9 6.19C47.58 6.19 48.95 7.56 48.95 9.24L48.95 37.48Z" fill="#FF5A30" fill-opacity="1.000000" fill-rule="nonzero"/>
		<path id="Vector" d="M35.14 12.28L7.71 12.28C6.87 12.28 6.19 12.97 6.19 13.81L6.19 41.23C6.19 42.07 6.87 42.75 7.71 42.75L22.95 42.75C23.35 42.75 23.74 42.59 24.03 42.31C24.31 42.02 24.47 41.63 24.47 41.23L24.47 38.18C24.47 36.2 25.75 34.5 27.52 33.87L27.52 41.23C27.52 42.07 28.2 42.75 29.04 42.75L35.14 42.75C35.98 42.75 36.66 42.07 36.66 41.23L36.66 13.81C36.66 12.97 35.98 12.28 35.14 12.28ZM33.61 39.71L30.57 39.71L30.57 32.09C30.57 31.25 29.88 30.57 29.04 30.57C24.84 30.57 21.42 33.98 21.42 38.18L21.42 39.71L9.24 39.71L9.24 30.57L15.33 30.57L15.33 35.14C15.33 35.98 16.01 36.66 16.85 36.66C17.7 36.66 18.38 35.98 18.38 35.14L18.38 29.04C18.38 28.2 17.7 27.52 16.85 27.52L9.24 27.52L9.24 15.33L18.38 15.33L18.38 21.42L13.81 21.42C12.97 21.42 12.28 22.11 12.28 22.95C12.28 23.79 12.97 24.47 13.81 24.47L19.9 24.47L26 24.47C26.84 24.47 27.52 23.79 27.52 22.95C27.52 22.11 26.84 21.42 26 21.42L21.42 21.42L21.42 15.33L33.61 15.33L33.61 39.71Z" fill="#FF5A30" fill-opacity="1.000000" fill-rule="nonzero"/>
	</g>
</svg>
