<svg width="48.000000" height="48.000000" viewBox="0 0 48 48" fill="none" xmlns="http://www.w3.org/2000/svg" xmlns:xlink="http://www.w3.org/1999/xlink">
	<desc>
			Created with Pixso.
	</desc>
	<defs>
		<clipPath id="clip1499_1692">
			<rect id="ic-pantone" rx="-0.500000" width="47.000000" height="47.000000" transform="translate(0.500000 0.500000)" fill="white" fill-opacity="0"/>
		</clipPath>
	</defs>
	<g clip-path="url(#clip1499_1692)">
		<path id="Vector" d="M9.93 33.84C7.61 33.84 5.71 35.73 5.71 38.06C5.71 40.38 7.61 42.28 9.93 42.28C12.26 42.28 14.15 40.38 14.15 38.06C14.15 35.73 12.26 33.84 9.93 33.84ZM9.93 39.46C9.16 39.46 8.53 38.83 8.53 38.06C8.53 37.28 9.16 36.65 9.93 36.65C10.71 36.65 11.34 37.28 11.34 38.06C11.34 38.83 10.71 39.46 9.93 39.46Z" fill="#9A9CA5" fill-opacity="1.000000" fill-rule="nonzero"/>
		<path id="Vector" d="M45.46 28.56C46.42 27.27 46.59 25.46 45.72 23.94L40.1 14.11C39.13 12.43 37.08 11.66 35.25 12.15C35.64 10.4 34.87 8.52 33.24 7.58L23.5 1.95C22.1 1.15 20.44 1.23 19.16 2.02C18.42 0.81 17.08 0 15.56 0L4.21 0C1.89 0 0 1.89 0 4.21C0 5.19 0 42.65 0 43.78C0 46.1 1.89 48 4.21 48C5.31 48 38.43 48 43.78 48C46.1 48 48 46.1 48 43.78L48 32.43C48 30.7 46.95 29.21 45.46 28.56ZM16.96 43.78C16.96 44.55 16.33 45.18 15.56 45.18L4.21 45.18C3.44 45.18 2.81 44.55 2.81 43.78C2.81 43.13 2.81 31.64 2.81 31.03L16.96 31.03L16.96 43.78ZM16.96 28.21L2.81 28.21L2.81 16.87L16.96 16.87L16.96 28.21ZM16.96 14.06L2.81 14.06L2.81 4.21C2.81 3.44 3.44 2.81 4.21 2.81L15.56 2.81C16.33 2.81 16.96 3.44 16.96 4.21L16.96 14.06ZM19.78 5.58L20.17 4.9C20.56 4.23 21.42 4 22.09 4.39L31.83 10.01C32.5 10.4 32.73 11.26 32.34 11.93L30.72 14.76C30.68 14.82 30.64 14.88 30.61 14.95L19.78 33.78L19.78 5.58ZM19.78 39.42L32.92 16.57L35.64 15C36.33 14.6 37.27 14.85 37.66 15.51L43.28 25.35C43.67 26.02 43.44 26.88 42.76 27.28C41.76 27.86 20.76 40.01 19.78 40.58L19.78 39.42ZM45.18 43.78C45.18 44.55 44.55 45.18 43.78 45.18L19.53 45.18C19.68 44.76 19.77 44.31 19.77 43.83L41.9 31.03L43.78 31.03C44.55 31.03 45.18 31.66 45.18 32.43L45.18 43.78Z" fill="#9A9CA5" fill-opacity="1.000000" fill-rule="nonzero"/>
	</g>
</svg>
