<svg width="48.000000" height="48.000000" viewBox="0 0 48 48" fill="none" xmlns="http://www.w3.org/2000/svg" xmlns:xlink="http://www.w3.org/1999/xlink">
	<desc>
			Created with Pixso.
	</desc>
	<defs>
		<clipPath id="clip1499_1682">
			<rect id="ic-painting" rx="-0.500000" width="47.000000" height="47.000000" transform="translate(0.500000 0.500000)" fill="white" fill-opacity="0"/>
		</clipPath>
	</defs>
	<g clip-path="url(#clip1499_1682)">
		<path id="Vector" d="M39.56 4.21C39.56 1.89 37.66 0 35.34 0L7.21 0C4.89 0 3 1.89 3 4.21L3 12.65C3 14.98 4.89 16.87 7.21 16.87L35.34 16.87C37.66 16.87 39.56 14.98 39.56 12.65L39.56 11.25L40.96 11.25C41.74 11.25 42.37 11.88 42.37 12.65L42.37 18.28C42.37 19.05 41.74 19.68 40.96 19.68L24.09 19.68C21.76 19.68 19.87 21.58 19.87 23.9L19.87 28.12L18.46 28.12C17.69 28.12 17.06 28.75 17.06 29.53L17.06 35.08L15.65 40.79C14.74 44.45 17.5 48 21.28 48C25.05 48 27.82 44.44 26.9 40.8L25.5 35.08L25.5 29.53C25.5 28.75 24.87 28.12 24.09 28.12L22.68 28.12L22.68 23.9C22.68 23.13 23.31 22.5 24.09 22.5L40.96 22.5C43.29 22.5 45.18 20.6 45.18 18.28L45.18 12.65C45.18 10.33 43.29 8.43 40.96 8.43L39.56 8.43L39.56 4.21ZM22.68 30.93L22.68 33.84L19.87 33.84L19.87 30.93L22.68 30.93ZM21.28 45.18C19.34 45.18 17.91 43.36 18.38 41.47L19.57 36.65L22.99 36.65L24.17 41.47C24.64 43.36 23.22 45.18 21.28 45.18ZM7.21 2.81L35.34 2.81C36.11 2.81 36.75 3.44 36.75 4.21L36.75 5.62L32.53 5.62C31.16 5.62 29.41 6.13 27.39 6.73C24.66 7.52 21.56 8.43 18.46 8.43C15.45 8.43 13.32 7.55 11.45 6.77C10.01 6.18 8.66 5.62 7.21 5.62L5.81 5.62L5.81 4.21C5.81 3.44 6.44 2.81 7.21 2.81ZM36.75 12.65C36.75 13.43 36.11 14.06 35.34 14.06L7.21 14.06C6.44 14.06 5.81 13.43 5.81 12.65L5.81 8.43L7.21 8.43C8.1 8.43 9.1 8.85 10.37 9.37C12.38 10.21 14.89 11.25 18.46 11.25C21.96 11.25 25.41 10.24 28.18 9.42C29.92 8.91 31.56 8.43 32.53 8.43L36.75 8.43L36.75 12.65Z" fill="#9A9CA5" fill-opacity="1.000000" fill-rule="nonzero"/>
	</g>
</svg>
