<svg width="52.000000" height="52.000000" viewBox="0 0 52 52" fill="none" xmlns="http://www.w3.org/2000/svg" xmlns:xlink="http://www.w3.org/1999/xlink">
	<desc>
			Created with Pixso.
	</desc>
	<defs>
		<clipPath id="clip2_689">
			<rect id="ic-painting" rx="-0.500000" width="51.000000" height="51.000000" transform="translate(0.500000 0.500000)" fill="white" fill-opacity="0"/>
		</clipPath>
	</defs>
	<g clip-path="url(#clip2_689)">
		<path id="Vector" d="M42.85 4.57C42.85 2.05 40.8 0 38.28 0L7.82 0C5.3 0 3.25 2.05 3.25 4.57L3.25 13.71C3.25 16.23 5.3 18.28 7.82 18.28L38.28 18.28C40.8 18.28 42.85 16.23 42.85 13.71L42.85 12.18L44.38 12.18C45.22 12.18 45.9 12.87 45.9 13.71L45.9 19.8C45.9 20.64 45.22 21.32 44.38 21.32L26.1 21.32C23.58 21.32 21.53 23.37 21.53 25.89L21.53 30.46L20 30.46C19.16 30.46 18.48 31.15 18.48 31.99L18.48 38L16.96 44.19C15.97 48.15 18.96 52 23.05 52C27.14 52 30.13 48.15 29.15 44.2L27.62 38L27.62 31.99C27.62 31.15 26.94 30.46 26.1 30.46L24.57 30.46L24.57 25.89C24.57 25.05 25.26 24.37 26.1 24.37L44.38 24.37C46.9 24.37 48.95 22.32 48.95 19.8L48.95 13.71C48.95 11.19 46.9 9.14 44.38 9.14L42.85 9.14L42.85 4.57ZM24.57 33.51L24.57 36.66L21.53 36.66L21.53 33.51L24.57 33.51ZM23.05 48.95C20.95 48.95 19.4 46.98 19.91 44.92L21.2 39.71L24.9 39.71L26.19 44.93C26.7 46.97 25.16 48.95 23.05 48.95ZM7.82 3.04L38.28 3.04C39.12 3.04 39.81 3.73 39.81 4.57L39.81 6.09L35.24 6.09C33.76 6.09 31.86 6.64 29.67 7.29C26.71 8.15 23.35 9.14 20 9.14C16.74 9.14 14.43 8.18 12.4 7.34C10.85 6.7 9.38 6.09 7.82 6.09L6.29 6.09L6.29 4.57C6.29 3.73 6.98 3.04 7.82 3.04ZM39.81 13.71C39.81 14.55 39.12 15.23 38.28 15.23L7.82 15.23C6.98 15.23 6.29 14.55 6.29 13.71L6.29 9.14L7.82 9.14C8.77 9.14 9.86 9.58 11.24 10.16C13.42 11.06 16.13 12.18 20 12.18C23.79 12.18 27.53 11.09 30.53 10.21C32.41 9.66 34.19 9.14 35.24 9.14L39.81 9.14L39.81 13.71Z" fill="#FF5A30" fill-opacity="1.000000" fill-rule="nonzero"/>
	</g>
</svg>
