<svg width="48.000000" height="48.000000" viewBox="0 0 48 48" fill="none" xmlns="http://www.w3.org/2000/svg" xmlns:xlink="http://www.w3.org/1999/xlink">
	<desc>
			Created with Pixso.
	</desc>
	<defs>
		<clipPath id="clip2_846">
			<rect id="ic-success" rx="-0.500000" width="47.000000" height="47.000000" transform="translate(0.500000 0.500000)" fill="white" fill-opacity="0"/>
		</clipPath>
	</defs>
	<g clip-path="url(#clip2_846)">
		<path id="Vector" d="M42.82 15.06L36.7 15.06L36.7 10.34L46.59 10.34C46.59 10.34 46.59 10.34 46.59 10.34C47.37 10.34 48 9.71 48 8.93C48 8.52 47.82 8.15 47.54 7.9L44.81 5.17L47.58 2.4C47.98 1.99 48.1 1.39 47.89 0.86C47.67 0.34 47.16 0 46.59 0L35.29 0C34.51 0 33.88 0.62 33.88 1.4L33.88 15.06L32.28 15.06C29.43 15.06 27.11 17.38 27.11 20.23L27.11 23.16C26.4 22.8 25.6 22.59 24.75 22.59L23.24 22.59C20.39 22.59 18.07 24.91 18.07 27.76L18.07 30.69C17.36 30.33 16.56 30.12 15.71 30.12L14.2 30.12C11.35 30.12 9.03 32.44 9.03 35.29L9.03 38.22C8.32 37.86 7.52 37.65 6.67 37.65L5.17 37.65C2.32 37.65 0 39.97 0 42.82L0 46.59C0 47.36 0.62 47.99 1.4 47.99L46.59 47.99C47.36 47.99 47.99 47.36 47.99 46.59L47.99 20.23C47.99 17.38 45.67 15.06 42.82 15.06ZM36.7 2.81L43.19 2.81L41.83 4.17C41.56 4.44 41.41 4.79 41.41 5.17C41.41 5.54 41.56 5.9 41.83 6.16L43.19 7.53L36.7 7.53L36.7 2.81ZM2.81 42.82C2.81 41.52 3.87 40.46 5.17 40.46L6.67 40.46C7.97 40.46 9.03 41.52 9.03 42.82L9.03 45.18L2.81 45.18L2.81 42.82ZM11.84 42.82L11.84 35.29C11.84 33.99 12.9 32.93 14.2 32.93L15.71 32.93C17.01 32.93 18.07 33.99 18.07 35.29L18.07 45.18L11.84 45.18L11.84 42.82ZM20.88 35.29L20.88 27.76C20.88 26.46 21.94 25.4 23.24 25.4L24.75 25.4C26.05 25.4 27.11 26.46 27.11 27.76L27.11 45.18L20.88 45.18L20.88 35.29ZM45.18 45.18L29.92 45.18L29.92 20.23C29.92 18.93 30.98 17.87 32.28 17.87L42.82 17.87C44.12 17.87 45.18 18.93 45.18 20.23L45.18 45.18Z" fill="#FF5A30" fill-opacity="1.000000" fill-rule="nonzero"/>
	</g>
</svg>
