<svg width="48.000000" height="48.000000" viewBox="0 0 48 48" fill="none" xmlns="http://www.w3.org/2000/svg" xmlns:xlink="http://www.w3.org/1999/xlink">
	<desc>
			Created with Pixso.
	</desc>
	<defs>
		<clipPath id="clip2_832">
			<rect id="ic-slippers" rx="-0.500000" width="47.000000" height="47.000000" transform="translate(0.500000 0.500000)" fill="white" fill-opacity="0"/>
		</clipPath>
	</defs>
	<g clip-path="url(#clip2_832)">
		<path id="Vector" d="M38.05 2.08C31.88 1.44 26.33 5.93 25.68 12.1L24.56 22.82C24.48 23.59 25.04 24.28 25.81 24.37L26.28 24.41L25.1 35.6C24.56 40.74 28.3 45.37 33.44 45.91C38.58 46.45 43.21 42.7 43.75 37.56L44.92 26.37L45.39 26.42C46.16 26.5 46.85 25.94 46.93 25.17L48.06 14.45C48.71 8.28 44.22 2.73 38.05 2.08ZM37.75 4.88C42.38 5.37 45.75 9.53 45.26 14.16L44.87 17.89L28.09 16.12L28.48 12.39C28.97 7.76 33.13 4.4 37.75 4.88ZM27.5 21.72L27.8 18.92L44.58 20.68L44.28 23.48L27.5 21.72ZM40.95 37.27C40.57 40.87 37.34 43.49 33.74 43.11C30.14 42.73 27.52 39.5 27.9 35.9L29.07 24.71L42.12 26.08L40.95 37.27Z" fill="#FF5A30" fill-opacity="1.000000" fill-rule="nonzero"/>
		<path id="Vector" d="M32.17 40.11L35.9 40.51C36.67 40.59 37.36 40.03 37.44 39.25C37.52 38.48 36.96 37.79 36.19 37.71L32.46 37.32C31.69 37.24 31 37.8 30.91 38.57C30.83 39.34 31.39 40.03 32.17 40.11Z" fill="#FF5A30" fill-opacity="1.000000" fill-rule="nonzero"/>
		<path id="Vector" d="M9.94 2.08C3.77 2.73 -0.72 8.28 -0.07 14.45L1.06 25.17C1.14 25.94 1.83 26.5 2.6 26.42L3.07 26.37L4.24 37.56C4.79 42.7 9.41 46.45 14.55 45.91C19.69 45.37 23.43 40.74 22.89 35.6L21.72 24.41L22.18 24.36C22.95 24.28 23.51 23.59 23.43 22.82L22.31 12.1C21.66 5.93 16.11 1.44 9.94 2.08ZM3.71 23.48L3.41 20.68L20.2 18.92L20.49 21.72L3.71 23.48ZM20.09 35.9C20.47 39.5 17.85 42.73 14.25 43.11C10.66 43.49 7.42 40.87 7.04 37.27L5.87 26.08L18.92 24.71L20.09 35.9ZM19.9 16.12L3.12 17.88L2.73 14.16C2.24 9.53 5.61 5.37 10.24 4.88C14.86 4.4 19.02 7.76 19.51 12.39L19.9 16.12Z" fill="#FF5A30" fill-opacity="1.000000" fill-rule="nonzero"/>
		<path id="Vector" d="M12.1 40.51L15.83 40.12C16.6 40.04 17.16 39.34 17.08 38.57C17 37.8 16.3 37.24 15.53 37.32L11.8 37.71C11.03 37.79 10.47 38.49 10.55 39.26C10.63 40.03 11.32 40.59 12.1 40.51Z" fill="#FF5A30" fill-opacity="1.000000" fill-rule="nonzero"/>
	</g>
</svg>
