<svg width="40.000000" height="40.000000" viewBox="0 0 40 40" fill="none" xmlns="http://www.w3.org/2000/svg" xmlns:xlink="http://www.w3.org/1999/xlink">
	<desc>
			Created with Pixso.
	</desc>
	<defs/>
	<path id="Rectangle (Stroke)" d="M14.16 4.86C12.78 4.86 11.66 5.98 11.66 7.36L11.66 32.62C11.66 34.01 12.78 35.12 14.16 35.12L25.83 35.12C27.21 35.12 28.33 34.01 28.33 32.62L28.33 7.36C28.33 5.98 27.21 4.86 25.83 4.86L25.69 4.86L25.28 5.84C25.02 6.46 24.42 6.86 23.75 6.86L16.25 6.86C15.57 6.86 14.96 6.46 14.71 5.84L14.3 4.86L14.16 4.86ZM8.33 7.36C8.33 4.14 10.94 1.53 14.16 1.53L25.83 1.53C29.05 1.53 31.66 4.14 31.66 7.36L31.66 32.62C31.66 35.85 29.05 38.46 25.83 38.46L14.16 38.46C10.94 38.46 8.33 35.85 8.33 32.62L8.33 7.36Z" fill="#FF5A30" fill-opacity="1.000000" fill-rule="evenodd"/>
</svg>
