<svg width="130.000000" height="22.000000" viewBox="0 0 130 22" fill="none" xmlns="http://www.w3.org/2000/svg" xmlns:xlink="http://www.w3.org/1999/xlink">
	<desc>
			Created with Pixso.
	</desc>
	<defs>
		<clipPath id="clip2_480">
			<rect id="logo" rx="-0.500000" width="129.000000" height="20.999998" transform="translate(0.500000 0.500000)" fill="white" fill-opacity="0"/>
		</clipPath>
	</defs>
	<g clip-path="url(#clip2_480)">
		<path id="Vector" d="M0 11.09C0 5 3.29 1.29 8.7 1.29C12.79 1.29 16.09 3.79 16.7 7.5C16.79 7.89 16.5 8.2 16.09 8.2L13.5 8.2C13.2 8.2 13 8 12.9 7.7C12.4 5.79 10.79 4.59 8.7 4.59C5.79 4.59 4 7.09 4 11.09C4 15.09 5.79 17.59 8.79 17.59C10.9 17.59 12.4 16.5 13 14.7C13.09 14.39 13.29 14.2 13.59 14.2L16.2 14.2C16.59 14.2 16.9 14.59 16.79 14.89C16.2 18.5 13 20.89 8.79 20.89C3.29 20.89 0 17.09 0 11.09ZM79 19.7L79 5.5C79 5.2 78.79 5 78.5 5L74.1 5C73.7 5 73.29 4.7 73.29 4.2L73.29 2.5C73.29 2.1 73.6 1.7 74.1 1.7L87.7 1.7C88.09 1.7 88.5 2 88.5 2.5L88.5 4.2C88.5 4.6 88.2 5 87.7 5L83.29 5C83 5 82.79 5.2 82.79 5.5L82.79 19.8C82.79 20.2 82.5 20.5 82.1 20.5L79.6 20.5C79.29 20.4 79 20.1 79 19.7ZM21.39 20.4L24.29 20.4C24.59 20.4 24.89 20.2 24.79 20L24.79 14.09C24.79 13.79 25 13.59 25.29 13.59L27.59 13.59C27.89 13.59 28.19 13.7 28.29 14L31.19 20C31.29 20.2 31.5 20.29 31.69 20.29L35 20.29C35.29 20.29 35.59 19.9 35.39 19.59L32.29 13.7C32.09 13.4 32.19 12.9 32.59 12.7C34.29 11.7 35.29 9.79 35.29 7.7C35.29 4.09 32.79 1.79 28.69 1.79L21.69 1.79C21.29 1.79 20.89 2.2 20.89 2.59L20.89 19.9C20.89 20.2 21.09 20.4 21.39 20.4ZM51.5 20.4L40.5 20.4C40.09 20.4 39.79 20.09 39.79 19.7L39.79 2.5C39.79 2.09 40.09 1.79 40.5 1.79L51.5 1.79C51.89 1.79 52.2 2.09 52.2 2.5L52.2 4.4C52.2 4.79 51.89 5.09 51.5 5.09L44.2 5.09C43.89 5.09 43.7 5.29 43.7 5.59L43.7 9C43.7 9.29 43.89 9.5 44.2 9.5L51 9.5C51.39 9.5 51.7 9.79 51.7 10.2L51.7 11.9C51.7 12.29 51.39 12.59 51 12.59L44.2 12.59C43.89 12.59 43.7 12.79 43.7 13.09L43.7 16.9C43.7 17.2 43.89 17.4 44.2 17.4L51.5 17.4C51.89 17.4 52.2 17.7 52.2 18.09L52.2 20C52.2 20.09 51.89 20.4 51.5 20.4ZM61.29 15.9L67 15.9C67.2 15.9 67.5 16.09 67.5 16.29L68.59 20C68.7 20.2 68.9 20.4 69.2 20.4L72.09 20.4C72.5 20.4 72.79 20 72.7 19.59L66.7 2.2C66.59 2 66.4 1.79 66.09 1.79L62.4 1.79C62.09 1.79 61.9 2 61.79 2.2L55.79 19.59C55.7 20 56 20.4 56.4 20.4L59 20.4C59.29 20.4 59.5 20.29 59.59 20L60.7 16.29C60.79 16.09 61 15.9 61.29 15.9ZM92.79 20.4L103.8 20.4C104.2 20.4 104.5 20.09 104.5 20L104.5 18.09C104.5 17.7 104.2 17.4 103.8 17.4L96.5 17.4C96.2 17.4 96 17.2 96 16.9L96 13.09C96 12.79 96.2 12.59 96.5 12.59L103.3 12.59C103.7 12.59 104 12.29 104 11.9L104 10.2C104 9.79 103.7 9.5 103.3 9.5L96.5 9.5C96.2 9.5 96 9.29 96 9L96 5.59C96 5.29 96.2 5.09 96.5 5.09L103.8 5.09C104.2 5.09 104.5 4.79 104.5 4.4L104.5 2.5C104.5 2.09 104.2 1.79 103.8 1.79L92.79 1.79C92.39 1.79 92.09 2.09 92.09 2.5L92.09 19.7C92.09 20.09 92.39 20.4 92.79 20.4ZM25.39 10.7C25.09 10.7 24.89 10.5 24.89 10.2L25 10.2L25 5.4C25 5.09 25.19 4.9 25.5 4.9L28.39 4.9C30.29 4.9 31.5 6 31.5 7.79C31.5 9.59 30.39 10.7 28.39 10.7L25.39 10.7ZM66.2 13L62.09 13C61.9 13 61.79 12.79 61.9 12.59L64.09 5.59L64.29 5.59L66.5 12.59C66.5 12.79 66.4 13 66.2 13Z" fill="#1E212C" fill-opacity="1.000000" fill-rule="evenodd"/>
		<path id="Vector" d="M111.5 1.59L117.7 9.7C118.39 10.5 118.39 11.7 117.7 12.29L111.5 20.4C111.1 20.79 110.6 21 110.1 21C109.6 21 109.1 20.79 108.7 20.4C108 19.59 108 18.4 108.7 17.59L113.6 11L108.7 4.4C108 3.59 108 2.4 108.7 1.59C109.1 1.2 109.6 1 110.1 1C110.6 1 111.1 1.2 111.5 1.59ZM126.54 1.59L120.34 9.7C119.64 10.5 119.64 11.7 120.34 12.29L126.54 20.4C126.94 20.79 127.44 21 127.94 21C128.44 21 128.94 20.79 129.34 20.4C130.04 19.59 130.04 18.4 129.34 17.59L124.44 11L129.34 4.4C130.04 3.59 130.04 2.4 129.34 1.59C128.94 1.2 128.44 1 127.94 1C127.44 1 126.94 1.2 126.54 1.59Z" fill="#FF5A30" fill-opacity="1.000000" fill-rule="evenodd"/>
	</g>
</svg>
