<svg width="11.333984" height="14.333984" viewBox="0 0 11.334 14.334" fill="none" xmlns="http://www.w3.org/2000/svg" xmlns:xlink="http://www.w3.org/1999/xlink">
	<desc>
			Created with Pixso.
	</desc>
	<defs/>
	<path id="Vector" d="M5.25 14.18C5.25 14.18 5.25 14.18 5.66 13.66L6.08 14.18C5.83 14.38 5.49 14.38 5.25 14.18ZM5.25 14.18L5.66 13.66C6.08 14.18 6.08 14.18 6.08 14.18L6.08 14.18L6.08 14.18L6.09 14.17C6.1 14.16 6.12 14.15 6.14 14.13C6.18 14.1 6.24 14.05 6.31 13.99C6.45 13.87 6.65 13.69 6.9 13.47C7.38 13.02 8.03 12.37 8.67 11.59C9.95 10.05 11.33 7.86 11.33 5.51C11.33 2.44 8.77 0 5.66 0C2.55 0 0 2.44 0 5.51C0 7.86 1.37 10.05 2.65 11.59C3.3 12.37 3.94 13.02 4.43 13.47C4.67 13.69 4.87 13.87 5.02 13.99C5.09 14.05 5.14 14.1 5.18 14.13C5.2 14.15 5.22 14.16 5.23 14.17L5.24 14.18L5.25 14.18L5.25 14.18ZM1.33 5.51C1.33 3.22 3.25 1.33 5.66 1.33C8.08 1.33 10 3.22 10 5.51C10 7.37 8.87 9.26 7.65 10.74C7.05 11.47 6.44 12.07 5.99 12.49C5.87 12.6 5.76 12.7 5.66 12.79C5.57 12.7 5.46 12.6 5.33 12.49C4.88 12.07 4.28 11.47 3.67 10.74C2.45 9.26 1.33 7.37 1.33 5.51ZM5.66 3C4.19 3 3 4.19 3 5.66C3 7.13 4.19 8.33 5.66 8.33C7.13 8.33 8.33 7.13 8.33 5.66C8.33 4.19 7.13 3 5.66 3ZM4.33 5.66C4.33 4.92 4.92 4.33 5.66 4.33C6.4 4.33 7 4.92 7 5.66C7 6.4 6.4 7 5.66 7C4.92 7 4.33 6.4 4.33 5.66Z" fill="#787A80" fill-opacity="1.000000" fill-rule="evenodd"/>
</svg>
