<svg width="16.000000" height="16.000000" viewBox="0 0 16 16" fill="none" xmlns="http://www.w3.org/2000/svg" xmlns:xlink="http://www.w3.org/1999/xlink">
	<desc>
			Created with Pixso.
	</desc>
	<defs>
		<clipPath id="clip2_873">
			<rect id="Pin/outline" rx="-0.500000" width="15.000000" height="15.000000" transform="translate(0.500000 0.500000)" fill="white" fill-opacity="0"/>
		</clipPath>
	</defs>
	<g clip-path="url(#clip2_873)">
		<path id="Vector" d="M7.58 15.02C7.58 15.02 7.58 15.02 8 14.5L8.41 15.02C8.17 15.21 7.83 15.21 7.58 15.02ZM7.58 15.02L8 14.5C8.41 15.02 8.41 15.02 8.41 15.02L8.41 15.02L8.41 15.01L8.43 15C8.44 15 8.45 14.98 8.47 14.97C8.51 14.93 8.57 14.89 8.64 14.83C8.79 14.71 8.99 14.53 9.23 14.3C9.71 13.85 10.36 13.21 11.01 12.42C12.28 10.88 13.66 8.69 13.66 6.34C13.66 3.28 11.11 0.83 8 0.83C4.89 0.83 2.33 3.28 2.33 6.34C2.33 8.69 3.71 10.88 4.98 12.42C5.63 13.21 6.28 13.85 6.76 14.3C7 14.53 7.21 14.71 7.35 14.83C7.42 14.89 7.48 14.93 7.52 14.97C7.54 14.98 7.55 15 7.57 15L7.58 15.01L7.58 15.02L7.58 15.02ZM3.66 6.34C3.66 4.05 5.58 2.16 8 2.16C10.41 2.16 12.33 4.05 12.33 6.34C12.33 8.21 11.21 10.09 9.98 11.58C9.38 12.3 8.78 12.91 8.32 13.33C8.2 13.44 8.09 13.54 8 13.62C7.9 13.54 7.79 13.44 7.67 13.33C7.21 12.91 6.61 12.3 6.01 11.58C4.78 10.09 3.66 8.21 3.66 6.34ZM8 3.83C6.52 3.83 5.33 5.02 5.33 6.5C5.33 7.97 6.52 9.16 8 9.16C9.47 9.16 10.66 7.97 10.66 6.5C10.66 5.02 9.47 3.83 8 3.83ZM6.66 6.5C6.66 5.76 7.26 5.16 8 5.16C8.73 5.16 9.33 5.76 9.33 6.5C9.33 7.23 8.73 7.83 8 7.83C7.26 7.83 6.66 7.23 6.66 6.5Z" fill="#787A80" fill-opacity="1.000000" fill-rule="evenodd"/>
	</g>
</svg>
