<svg width="100.000000" height="68.000000" viewBox="0 0 100 68" fill="none" xmlns="http://www.w3.org/2000/svg" xmlns:xlink="http://www.w3.org/1999/xlink">
	<desc>
			Created with Pixso.
	</desc>
	<defs>
		<clipPath id="clip1499_1477">
			<rect id="signature" rx="-0.500000" width="99.000000" height="67.000000" transform="translate(0.500000 0.500000)" fill="white" fill-opacity="0"/>
		</clipPath>
	</defs>
	<rect id="signature" rx="-0.500000" width="99.000000" height="67.000000" transform="translate(0.500000 0.500000)" fill="#FFFFFF" fill-opacity="0"/>
	<g clip-path="url(#clip1499_1477)">
		<path id="Vector" d="M72.09 65.9C70.9 63.69 75.9 59.8 77.4 57.9C70.9 58.09 77.09 54.09 80.69 56.09C80.69 57.4 73.09 65.8 72.09 65.9ZM68.9 63.59C71.19 62.8 76.4 52.19 71.09 57C71.19 59 66.8 61.19 68.9 63.59ZM98.8 33.59C98.8 43.4 77.3 51.3 69.69 51.4C66.59 54.5 61.9 66.3 56.8 67.3C54.5 63.69 63.5 51.8 66.9 48.69C66.9 47.19 62.3 49.4 64 44.9C62 45.3 54.8 51.59 55.4 44.9C51.8 47.09 45.4 51.8 42 47.4C39.9 47.59 33.4 53.3 32.9 47.59C29.9 49.69 30.4 49.5 27.59 49.5C22.8 52.59 8.19 61.4 8.19 49.19C11.4 37.5 3.3 54.5 1 48C1 43.09 17.4 20.9 20.3 23C20.3 24.3 11.8 32.5 10.3 34.19C9.8 35 0.59 47.59 3 47.9C11.4 43.5 14.19 34.09 21.3 29.09C25.69 29.69 19 34.59 17.3 36.59C14.09 38.9 5.4 50.8 12 54.09C18.5 54.09 22.3 50.59 27.59 47.9C30.4 43.5 33.8 40.5 37.8 37.69C46.3 33.8 52.4 22.59 56.59 14.4C57.8 10.4 59.3 7.09 56.8 3.5C46.9 -3.91 26.9 7.59 19.19 14C18.4 13 27.59 6.3 29.8 6C34.59 2.3 44.4 0 50.69 0C70.9 2.69 50 29.4 43 36.4C43 37 44.69 38.5 42.5 37.59C41.19 37.69 33.8 47.09 34.59 48.59C42.19 48.59 42.59 40.3 47.4 36.3C47.59 35 55.8 27.9 57.3 31.8C56.8 36.8 46.9 43.4 43.3 46.19C43.3 51.3 55.4 43.09 56.5 42.5C56.9 41.9 62.69 35 62.69 35C58.09 33.59 59.4 32.5 63.8 33.69C66 33.3 67.19 29 69.9 30.5C69.9 33.5 63.09 36.19 73.9 34.3C74.69 33.5 79 29.5 78.8 32.8C75.59 35.5 86.5 32.9 88.19 31C92.4 33.69 77.8 35.4 75.8 35.59C73.8 36.9 64.8 44 65.19 46.9C69.4 46.9 75.59 39.8 78.69 37.09C79.59 37 79.9 37.8 80.8 37.59C84.19 35 95.8 28.19 98.8 33.59ZM44 43.8C46.3 42.5 56.09 34.8 55.8 32.19C53 31.9 43.09 41.59 44 43.8ZM33.9 42.9C34.19 42.69 34.5 42.59 34.9 42.4C36.3 40.5 34.19 42 33.9 42.9ZM62.3 37.69C63 37 63.8 36.3 64.5 35.69C64.19 34.9 62.5 37.09 62.3 37.69ZM69.3 38.3C73.9 35.09 71 35.8 66.19 35.69C63.59 38.3 56.69 42.59 56.9 46.69C61.09 46 66.69 41.5 69.3 38.3ZM68.3 51C67.5 46.3 58.59 62.4 58 64.9C62.19 60.9 65.19 55.69 68.3 51ZM70.5 47C69.9 47.5 68.3 48.5 69 49.4C69.5 48.9 70.5 47.69 70.5 47ZM96.9 33.3C89.5 31 72.59 42.9 70.59 50.19C78 49.8 85.69 45 92 41.4C93.4 40.09 99.4 35.3 96.9 33.3Z" fill="#FF5A30" fill-opacity="1.000000" fill-rule="evenodd"/>
	</g>
</svg>
