<svg width="48.000000" height="44.812500" viewBox="0 0 48 44.8125" fill="none" xmlns="http://www.w3.org/2000/svg" xmlns:xlink="http://www.w3.org/1999/xlink">
	<desc>
			Created with Pixso.
	</desc>
	<defs/>
	<path id="Vector" d="M46.59 23.81C47.37 23.81 48 23.18 48 22.4L48 11.9C48 11.12 47.37 10.5 46.59 10.5C45.61 10.5 26.46 10.5 25.4 10.5L25.4 1.4C25.4 0.62 24.77 0 24 0L9 0C8.22 0 7.59 0.62 7.59 1.4L7.59 10.5L1.4 10.5C0.62 10.5 0 11.12 0 11.9L0 22.4C0 23.18 0.62 23.81 1.4 23.81L7.59 23.81L7.59 31.5L1.4 31.5C0.62 31.5 0 32.12 0 32.9L0 43.4C0 44.18 0.62 44.81 1.4 44.81L46.59 44.81C47.37 44.81 48 44.18 48 43.4L48 32.9C48 32.12 47.37 31.5 46.59 31.5L40.4 31.5L40.4 23.81L46.59 23.81ZM45.18 21C43.68 21 34.39 21 32.9 21L32.9 13.31L45.18 13.31L45.18 21ZM30.09 21C28.62 21 19.38 21 17.9 21L17.9 13.31L30.09 13.31L30.09 21ZM10.4 2.81L22.59 2.81L22.59 10.5C21.12 10.5 11.88 10.5 10.4 10.5L10.4 2.81ZM2.81 21L2.81 13.31L15.09 13.31L15.09 21C13.6 21 4.31 21 2.81 21ZM10.4 23.81L22.59 23.81L22.59 31.5C21.12 31.5 11.88 31.5 10.4 31.5L10.4 23.81ZM2.81 34.31L15.09 34.31L15.09 42L2.81 42L2.81 34.31ZM17.9 34.31L30.09 34.31L30.09 42L17.9 42L17.9 34.31ZM45.18 34.31L45.18 42L32.9 42L32.9 34.31L45.18 34.31ZM37.59 31.5C36.12 31.5 26.88 31.5 25.4 31.5L25.4 23.81L37.59 23.81L37.59 31.5Z" fill="#FF5A30" fill-opacity="1.000000" fill-rule="nonzero"/>
</svg>
