<svg width="52.000000" height="52.000000" viewBox="0 0 52 52" fill="none" xmlns="http://www.w3.org/2000/svg" xmlns:xlink="http://www.w3.org/1999/xlink">
	<desc>
			Created with Pixso.
	</desc>
	<defs/>
	<path id="Vector" d="M49.25 30.94C50.29 29.54 50.48 27.58 49.53 25.94L43.44 15.29C42.39 13.46 40.16 12.63 38.18 13.16C38.61 11.26 37.78 9.23 36.01 8.21L25.45 2.11C23.95 1.25 22.14 1.33 20.76 2.19C19.95 0.88 18.51 0 16.85 0L4.57 0C2.04 0 0 2.05 0 4.57C0 5.62 0 46.21 0 47.42C0 49.94 2.04 52 4.57 52C5.75 52 41.63 52 47.42 52C49.95 52 52 49.94 52 47.42L52 35.14C52 33.26 50.86 31.65 49.25 30.94ZM18.38 47.42C18.38 48.26 17.69 48.95 16.85 48.95L4.57 48.95C3.73 48.95 3.04 48.26 3.04 47.42C3.04 46.73 3.04 34.28 3.04 33.61L18.38 33.61L18.38 47.42ZM18.38 30.57L3.04 30.57L3.04 18.28L18.38 18.28L18.38 30.57ZM18.38 15.23L3.04 15.23L3.04 4.57C3.04 3.73 3.73 3.04 4.57 3.04L16.85 3.04C17.69 3.04 18.38 3.73 18.38 4.57L18.38 15.23ZM21.42 6.05L21.85 5.31C22.27 4.58 23.2 4.33 23.93 4.75L34.48 10.85C35.21 11.27 35.46 12.2 35.04 12.93L33.28 15.99C33.24 16.06 33.2 16.12 33.16 16.19L21.42 36.6L21.42 6.05ZM21.42 42.71L35.67 17.95L38.61 16.25C39.36 15.82 40.38 16.08 40.8 16.81L46.89 27.46C47.31 28.19 47.07 29.12 46.33 29.55C45.24 30.18 22.5 43.35 21.42 43.97L21.42 42.71ZM48.95 47.42C48.95 48.26 48.26 48.95 47.42 48.95L21.16 48.95C21.33 48.49 21.42 48 21.42 47.49L45.39 33.61L47.42 33.61C48.26 33.61 48.95 34.3 48.95 35.14L48.95 47.42Z" fill="#FFFFFF" fill-opacity="1.000000" fill-rule="nonzero"/>
</svg>
