<svg width="52.000000" height="48.546875" viewBox="0 0 52 48.5469" fill="none" xmlns="http://www.w3.org/2000/svg" xmlns:xlink="http://www.w3.org/1999/xlink">
	<desc>
			Created with Pixso.
	</desc>
	<defs/>
	<path id="Vector" d="M50.47 25.79C51.31 25.79 52 25.11 52 24.27L52 12.89C52 12.05 51.31 11.37 50.47 11.37C49.41 11.37 28.66 11.37 27.52 11.37L27.52 1.52C27.52 0.68 26.84 0 26 0L9.75 0C8.9 0 8.22 0.68 8.22 1.52L8.22 11.37L1.52 11.37C0.68 11.37 0 12.05 0 12.89L0 24.27C0 25.11 0.68 25.79 1.52 25.79L8.22 25.79L8.22 34.12L1.52 34.12C0.68 34.12 0 34.8 0 35.64L0 47.02C0 47.86 0.68 48.54 1.52 48.54L50.47 48.54C51.31 48.54 52 47.86 52 47.02L52 35.64C52 34.8 51.31 34.12 50.47 34.12L43.77 34.12L43.77 25.79L50.47 25.79ZM48.95 22.75C47.32 22.75 37.25 22.75 35.64 22.75L35.64 14.42L48.95 14.42L48.95 22.75ZM32.6 22.75C31 22.75 21 22.75 19.39 22.75L19.39 14.42L32.6 14.42L32.6 22.75ZM11.27 3.04L24.47 3.04L24.47 11.37C22.88 11.37 12.87 11.37 11.27 11.37L11.27 3.04ZM3.04 22.75L3.04 14.42L16.35 14.42L16.35 22.75C14.73 22.75 4.67 22.75 3.04 22.75ZM11.27 25.79L24.47 25.79L24.47 34.12C22.88 34.12 12.87 34.12 11.27 34.12L11.27 25.79ZM3.04 37.17L16.35 37.17L16.35 45.5L3.04 45.5L3.04 37.17ZM19.39 37.17L32.6 37.17L32.6 45.5L19.39 45.5L19.39 37.17ZM48.95 37.17L48.95 45.5L35.64 45.5L35.64 37.17L48.95 37.17ZM40.72 34.12C39.13 34.12 29.12 34.12 27.52 34.12L27.52 25.79L40.72 25.79L40.72 34.12Z" fill="#FF5A30" fill-opacity="1.000000" fill-rule="nonzero"/>
</svg>
