<svg width="20.000000" height="20.000000" viewBox="0 0 20 20" fill="none" xmlns="http://www.w3.org/2000/svg" xmlns:xlink="http://www.w3.org/1999/xlink">
	<desc>
			Created with Pixso.
	</desc>
	<defs>
		<clipPath id="clip2_856">
			<rect id="Volume/off" rx="-0.500000" width="19.000000" height="19.000000" transform="translate(0.500000 0.500000)" fill="white" fill-opacity="0"/>
		</clipPath>
	</defs>
	<g clip-path="url(#clip2_856)">
		<path id="Vector" d="M16.08 4.41C16.41 4.08 16.91 4.08 17.25 4.41C17.58 4.75 17.58 5.25 17.25 5.58L5.58 17.25C5.25 17.58 4.75 17.58 4.41 17.25C4.08 16.91 4.08 16.41 4.41 16.08L7.16 13.33L6.66 13.33C5.75 13.33 5 12.58 5 11.66L5 8.33C5 7.41 5.75 6.66 6.66 6.66L8.58 6.66C9 6.66 9.33 6.5 9.66 6.33L12 4.41C12.5 4 13.33 4.41 13.33 5.08L13.33 7.16L16.08 4.41ZM13.33 14.91C13.33 15.66 12.58 16 12 15.58L10.25 14.25L13.33 11.16L13.33 14.91Z" fill="#FFFFFF" fill-opacity="1.000000" fill-rule="evenodd"/>
	</g>
</svg>
