<svg width="24.000000" height="24.000000" viewBox="0 0 24 24" fill="none" xmlns="http://www.w3.org/2000/svg" xmlns:xlink="http://www.w3.org/1999/xlink">
	<desc>
			Created with Pixso.
	</desc>
	<defs/>
	<g opacity="0.600000">
		<path id="WhatsApp" d="M22 11.74C22 17.12 17.6 21.48 12.18 21.48C10.46 21.48 8.84 21.04 7.43 20.27L2 22L3.77 16.77C2.87 15.3 2.36 13.58 2.36 11.74C2.36 6.36 6.75 2 12.18 2C17.6 2 22 6.36 22 11.74ZM12.18 3.55C7.62 3.55 3.92 7.22 3.92 11.74C3.92 13.53 4.51 15.19 5.5 16.54L4.46 19.58L7.64 18.57C8.94 19.43 10.5 19.93 12.18 19.93C16.73 19.93 20.43 16.25 20.43 11.74C20.43 7.22 16.73 3.55 12.18 3.55ZM17.13 13.98C17.07 13.88 16.91 13.82 16.67 13.7C16.43 13.58 15.25 13 15.03 12.93C14.81 12.85 14.65 12.81 14.49 13.05C14.33 13.28 13.87 13.82 13.73 13.98C13.58 14.14 13.44 14.16 13.2 14.04C12.96 13.92 12.19 13.67 11.27 12.86C10.55 12.22 10.07 11.44 9.93 11.2C9.79 10.96 9.91 10.83 10.04 10.72C10.14 10.61 10.28 10.44 10.4 10.3C10.52 10.16 10.56 10.06 10.64 9.9C10.72 9.74 10.68 9.6 10.62 9.48C10.56 9.36 10.08 8.19 9.87 7.71C9.67 7.23 9.47 7.31 9.33 7.31C9.19 7.31 9.03 7.29 8.87 7.29C8.71 7.29 8.45 7.35 8.23 7.59C8.01 7.83 7.39 8.41 7.39 9.58C7.39 10.75 8.25 11.89 8.37 12.05C8.49 12.21 10.04 14.7 12.48 15.66C14.93 16.61 14.93 16.29 15.37 16.25C15.81 16.21 16.79 15.67 17 15.12C17.19 14.56 17.19 14.08 17.13 13.98Z" fill="#FFFFFF" fill-opacity="1.000000" fill-rule="nonzero"/>
	</g>
</svg>
